# Blender v2.93.1 OBJ File: ''
# www.blender.org
mtllib car.mtl
o Cube_Cube.001
v -1.670421 -1.670421 1.995862
v -1.670421 1.670421 1.038846
v -1.670421 -1.670421 -2.789221
v -1.670421 1.670421 -2.406415
v 1.670421 -1.670421 1.995862
v 1.670421 1.670421 1.038846
v 1.670421 -1.670421 -2.789221
v 1.670421 1.670421 -2.406415
v -1.670421 0.000000 1.995862
v -1.670421 0.000000 -2.789221
v 1.670421 0.000000 -2.789221
v 1.670421 0.000000 1.995862
v 1.431935 -0.334084 4.860460
v 1.431935 -1.670421 4.860460
v -1.431935 -1.670421 4.860460
v -1.431935 -0.334084 4.860460
vt 0.500000 0.000000
vt 0.625000 0.050000
vt 0.625000 0.230000
vt 0.500000 0.250000
vt 0.625000 0.520000
vt 0.500000 0.500000
vt 0.625000 0.700000
vt 0.500000 0.750000
vt 0.625000 1.000000
vt 0.500000 1.000000
vt 0.125000 0.500000
vt 0.375000 0.500000
vt 0.375000 0.750000
vt 0.125000 0.750000
vt 0.875000 0.520000
vt 0.875000 0.700000
vt 0.375000 0.750000
vt 0.125000 0.750000
vt 0.375000 0.250000
vt 0.375000 0.000000
vt 0.475000 0.750000
vt 0.475000 1.000000
vt 0.375000 1.000000
vt 0.375000 0.000000
vt 0.475000 0.000000
vn -1.0000 0.0000 0.0000
vn 0.0000 0.2234 -0.9747
vn 1.0000 0.0000 0.0000
vn 0.0000 0.4971 0.8677
vn 0.0000 -1.0000 0.0000
vn 0.0000 1.0000 0.0000
vn 0.0000 0.0000 -1.0000
vn 0.0000 0.0000 1.0000
vn 0.9966 0.0000 0.0830
vn 0.0000 0.9933 0.1158
vn -0.9966 0.0000 0.0830
usemtl None
s off
f 9/1/1 2/2/1 4/3/1 10/4/1
f 10/4/2 4/3/2 8/5/2 11/6/2
f 11/6/3 8/5/3 6/7/3 12/8/3
f 12/8/4 6/7/4 2/9/4 9/10/4
f 3/11/5 7/12/5 5/13/5 1/14/5
f 8/5/6 4/15/6 2/16/6 6/7/6
f 1/14/5 5/13/5 14/17/5 15/18/5
f 7/12/3 11/6/3 12/8/3 5/13/3
f 3/19/7 10/4/7 11/6/7 7/12/7
f 1/20/1 9/1/1 10/4/1 3/19/1
f 14/17/8 13/21/8 16/22/8 15/23/8
f 5/13/9 12/8/9 13/21/9 14/17/9
f 12/8/10 9/10/10 16/22/10 13/21/10
f 9/1/11 1/20/11 15/24/11 16/25/11
o Cylinder
v 0.749293 -1.400000 3.389293
v 1.970707 -1.400000 3.389293
v 0.749293 -1.705354 3.471112
v 1.970707 -1.705353 3.471112
v 0.749293 -1.928888 3.694647
v 1.970707 -1.928888 3.694646
v 0.749293 -2.010707 4.000000
v 1.970707 -2.010707 4.000000
v 0.749293 -1.928888 4.305354
v 1.970707 -1.928888 4.305354
v 0.749293 -1.705354 4.528888
v 1.970707 -1.705353 4.528888
v 0.749293 -1.400000 4.610707
v 1.970707 -1.400000 4.610707
v 0.749293 -1.094646 4.528888
v 1.970707 -1.094646 4.528888
v 0.749293 -0.871112 4.305354
v 1.970707 -0.871112 4.305354
v 0.749293 -0.789293 4.000000
v 1.970707 -0.789293 4.000000
v 0.749293 -0.871112 3.694647
v 1.970707 -0.871112 3.694646
v 0.749293 -1.094646 3.471112
v 1.970707 -1.094646 3.471112
vt 1.000000 0.500000
vt 1.000000 1.000000
vt 0.916667 1.000000
vt 0.916667 0.500000
vt 0.833333 1.000000
vt 0.833333 0.500000
vt 0.750000 1.000000
vt 0.750000 0.500000
vt 0.666667 1.000000
vt 0.666667 0.500000
vt 0.583333 1.000000
vt 0.583333 0.500000
vt 0.500000 1.000000
vt 0.500000 0.500000
vt 0.416667 1.000000
vt 0.416667 0.500000
vt 0.333333 1.000000
vt 0.333333 0.500000
vt 0.250000 1.000000
vt 0.250000 0.500000
vt 0.166667 1.000000
vt 0.166667 0.500000
vt 0.370000 0.457846
vt 0.250000 0.490000
vt 0.130000 0.457846
vt 0.042154 0.370000
vt 0.010000 0.250000
vt 0.042154 0.130000
vt 0.130000 0.042154
vt 0.250000 0.010000
vt 0.370000 0.042154
vt 0.457846 0.130000
vt 0.490000 0.250000
vt 0.457846 0.370000
vt 0.083333 1.000000
vt 0.083333 0.500000
vt 0.000000 1.000000
vt 0.000000 0.500000
vt 0.750000 0.490000
vt 0.870000 0.457846
vt 0.957846 0.370000
vt 0.990000 0.250000
vt 0.957846 0.130000
vt 0.870000 0.042154
vt 0.750000 0.010000
vt 0.630000 0.042154
vt 0.542154 0.130000
vt 0.510000 0.250000
vt 0.542154 0.370000
vt 0.630000 0.457846
vn -0.0000 -0.2588 -0.9659
vn -0.0000 -0.7071 -0.7071
vn 0.0000 -0.9659 -0.2588
vn 0.0000 -0.9659 0.2588
vn 0.0000 -0.7071 0.7071
vn 0.0000 -0.2588 0.9659
vn 0.0000 0.2588 0.9659
vn -0.0000 0.7071 0.7071
vn -0.0000 0.9659 0.2588
vn -0.0000 0.9659 -0.2588
vn 1.0000 0.0000 -0.0000
vn -0.0000 0.7071 -0.7071
vn -0.0000 0.2588 -0.9659
vn -1.0000 -0.0000 0.0000
usemtl None
s off
f 17/26/12 18/27/12 20/28/12 19/29/12
f 19/29/13 20/28/13 22/30/13 21/31/13
f 21/31/14 22/30/14 24/32/14 23/33/14
f 23/33/15 24/32/15 26/34/15 25/35/15
f 25/35/16 26/34/16 28/36/16 27/37/16
f 27/37/17 28/36/17 30/38/17 29/39/17
f 29/39/18 30/38/18 32/40/18 31/41/18
f 31/41/19 32/40/19 34/42/19 33/43/19
f 33/43/20 34/42/20 36/44/20 35/45/20
f 35/45/21 36/44/21 38/46/21 37/47/21
f 20/48/22 18/49/22 40/50/22 38/51/22 36/52/22 34/53/22 32/54/22 30/55/22 28/56/22 26/57/22 24/58/22 22/59/22
f 37/47/23 38/46/23 40/60/23 39/61/23
f 39/61/24 40/60/24 18/62/24 17/63/24
f 17/64/25 19/65/25 21/66/25 23/67/25 25/68/25 27/69/25 29/70/25 31/71/25 33/72/25 35/73/25 37/74/25 39/75/25
o Cylinder.001
v 0.749293 -1.400000 -2.610707
v 1.970707 -1.400000 -2.610707
v 0.749293 -1.705354 -2.528888
v 1.970707 -1.705353 -2.528888
v 0.749293 -1.928888 -2.305353
v 1.970707 -1.928888 -2.305354
v 0.749293 -2.010707 -2.000000
v 1.970707 -2.010707 -2.000000
v 0.749293 -1.928888 -1.694646
v 1.970707 -1.928888 -1.694646
v 0.749293 -1.705354 -1.471112
v 1.970707 -1.705353 -1.471112
v 0.749293 -1.400000 -1.389293
v 1.970707 -1.400000 -1.389293
v 0.749293 -1.094646 -1.471112
v 1.970707 -1.094646 -1.471112
v 0.749293 -0.871112 -1.694646
v 1.970707 -0.871112 -1.694647
v 0.749293 -0.789293 -2.000000
v 1.970707 -0.789293 -2.000000
v 0.749293 -0.871112 -2.305353
v 1.970707 -0.871112 -2.305354
v 0.749293 -1.094646 -2.528888
v 1.970707 -1.094646 -2.528888
vt 1.000000 0.500000
vt 1.000000 1.000000
vt 0.916667 1.000000
vt 0.916667 0.500000
vt 0.833333 1.000000
vt 0.833333 0.500000
vt 0.750000 1.000000
vt 0.750000 0.500000
vt 0.666667 1.000000
vt 0.666667 0.500000
vt 0.583333 1.000000
vt 0.583333 0.500000
vt 0.500000 1.000000
vt 0.500000 0.500000
vt 0.416667 1.000000
vt 0.416667 0.500000
vt 0.333333 1.000000
vt 0.333333 0.500000
vt 0.250000 1.000000
vt 0.250000 0.500000
vt 0.166667 1.000000
vt 0.166667 0.500000
vt 0.370000 0.457846
vt 0.250000 0.490000
vt 0.130000 0.457846
vt 0.042154 0.370000
vt 0.010000 0.250000
vt 0.042154 0.130000
vt 0.130000 0.042154
vt 0.250000 0.010000
vt 0.370000 0.042154
vt 0.457846 0.130000
vt 0.490000 0.250000
vt 0.457846 0.370000
vt 0.083333 1.000000
vt 0.083333 0.500000
vt 0.000000 1.000000
vt 0.000000 0.500000
vt 0.750000 0.490000
vt 0.870000 0.457846
vt 0.957846 0.370000
vt 0.990000 0.250000
vt 0.957846 0.130000
vt 0.870000 0.042154
vt 0.750000 0.010000
vt 0.630000 0.042154
vt 0.542154 0.130000
vt 0.510000 0.250000
vt 0.542154 0.370000
vt 0.630000 0.457846
vn -0.0000 -0.2588 -0.9659
vn -0.0000 -0.7071 -0.7071
vn 0.0000 -0.9659 -0.2588
vn 0.0000 -0.9659 0.2588
vn 0.0000 -0.7071 0.7071
vn 0.0000 -0.2588 0.9659
vn 0.0000 0.2588 0.9659
vn -0.0000 0.7071 0.7071
vn -0.0000 0.9659 0.2588
vn -0.0000 0.9659 -0.2588
vn 1.0000 0.0000 -0.0000
vn -0.0000 0.7071 -0.7071
vn -0.0000 0.2588 -0.9659
vn -1.0000 -0.0000 0.0000
usemtl None
s off
f 41/76/26 42/77/26 44/78/26 43/79/26
f 43/79/27 44/78/27 46/80/27 45/81/27
f 45/81/28 46/80/28 48/82/28 47/83/28
f 47/83/29 48/82/29 50/84/29 49/85/29
f 49/85/30 50/84/30 52/86/30 51/87/30
f 51/87/31 52/86/31 54/88/31 53/89/31
f 53/89/32 54/88/32 56/90/32 55/91/32
f 55/91/33 56/90/33 58/92/33 57/93/33
f 57/93/34 58/92/34 60/94/34 59/95/34
f 59/95/35 60/94/35 62/96/35 61/97/35
f 44/98/36 42/99/36 64/100/36 62/101/36 60/102/36 58/103/36 56/104/36 54/105/36 52/106/36 50/107/36 48/108/36 46/109/36
f 61/97/37 62/96/37 64/110/37 63/111/37
f 63/111/38 64/110/38 42/112/38 41/113/38
f 41/114/39 43/115/39 45/116/39 47/117/39 49/118/39 51/119/39 53/120/39 55/121/39 57/122/39 59/123/39 61/124/39 63/125/39
o Cylinder.002
v -1.850707 -1.400000 3.389293
v -0.629293 -1.400000 3.389293
v -1.850707 -1.705354 3.471112
v -0.629293 -1.705353 3.471112
v -1.850707 -1.928888 3.694647
v -0.629293 -1.928888 3.694646
v -1.850707 -2.010707 4.000000
v -0.629293 -2.010707 4.000000
v -1.850707 -1.928888 4.305354
v -0.629293 -1.928888 4.305354
v -1.850707 -1.705354 4.528888
v -0.629293 -1.705353 4.528888
v -1.850707 -1.400000 4.610707
v -0.629293 -1.400000 4.610707
v -1.850707 -1.094646 4.528888
v -0.629293 -1.094646 4.528888
v -1.850707 -0.871112 4.305354
v -0.629293 -0.871112 4.305354
v -1.850707 -0.789293 4.000000
v -0.629293 -0.789293 4.000000
v -1.850707 -0.871112 3.694647
v -0.629293 -0.871112 3.694646
v -1.850707 -1.094646 3.471112
v -0.629293 -1.094646 3.471112
vt 1.000000 0.500000
vt 1.000000 1.000000
vt 0.916667 1.000000
vt 0.916667 0.500000
vt 0.833333 1.000000
vt 0.833333 0.500000
vt 0.750000 1.000000
vt 0.750000 0.500000
vt 0.666667 1.000000
vt 0.666667 0.500000
vt 0.583333 1.000000
vt 0.583333 0.500000
vt 0.500000 1.000000
vt 0.500000 0.500000
vt 0.416667 1.000000
vt 0.416667 0.500000
vt 0.333333 1.000000
vt 0.333333 0.500000
vt 0.250000 1.000000
vt 0.250000 0.500000
vt 0.166667 1.000000
vt 0.166667 0.500000
vt 0.370000 0.457846
vt 0.250000 0.490000
vt 0.130000 0.457846
vt 0.042154 0.370000
vt 0.010000 0.250000
vt 0.042154 0.130000
vt 0.130000 0.042154
vt 0.250000 0.010000
vt 0.370000 0.042154
vt 0.457846 0.130000
vt 0.490000 0.250000
vt 0.457846 0.370000
vt 0.083333 1.000000
vt 0.083333 0.500000
vt 0.000000 1.000000
vt 0.000000 0.500000
vt 0.750000 0.490000
vt 0.870000 0.457846
vt 0.957846 0.370000
vt 0.990000 0.250000
vt 0.957846 0.130000
vt 0.870000 0.042154
vt 0.750000 0.010000
vt 0.630000 0.042154
vt 0.542154 0.130000
vt 0.510000 0.250000
vt 0.542154 0.370000
vt 0.630000 0.457846
vn -0.0000 -0.2588 -0.9659
vn -0.0000 -0.7071 -0.7071
vn 0.0000 -0.9659 -0.2588
vn 0.0000 -0.9659 0.2588
vn 0.0000 -0.7071 0.7071
vn 0.0000 -0.2588 0.9659
vn 0.0000 0.2588 0.9659
vn -0.0000 0.7071 0.7071
vn -0.0000 0.9659 0.2588
vn -0.0000 0.9659 -0.2588
vn 1.0000 0.0000 -0.0000
vn -0.0000 0.7071 -0.7071
vn -0.0000 0.2588 -0.9659
vn -1.0000 -0.0000 0.0000
usemtl None
s off
f 65/126/40 66/127/40 68/128/40 67/129/40
f 67/129/41 68/128/41 70/130/41 69/131/41
f 69/131/42 70/130/42 72/132/42 71/133/42
f 71/133/43 72/132/43 74/134/43 73/135/43
f 73/135/44 74/134/44 76/136/44 75/137/44
f 75/137/45 76/136/45 78/138/45 77/139/45
f 77/139/46 78/138/46 80/140/46 79/141/46
f 79/141/47 80/140/47 82/142/47 81/143/47
f 81/143/48 82/142/48 84/144/48 83/145/48
f 83/145/49 84/144/49 86/146/49 85/147/49
f 68/148/50 66/149/50 88/150/50 86/151/50 84/152/50 82/153/50 80/154/50 78/155/50 76/156/50 74/157/50 72/158/50 70/159/50
f 85/147/51 86/146/51 88/160/51 87/161/51
f 87/161/52 88/160/52 66/162/52 65/163/52
f 65/164/53 67/165/53 69/166/53 71/167/53 73/168/53 75/169/53 77/170/53 79/171/53 81/172/53 83/173/53 85/174/53 87/175/53
o Cylinder.003
v -1.850707 -1.400000 -2.610707
v -0.629293 -1.400000 -2.610707
v -1.850707 -1.705354 -2.528888
v -0.629293 -1.705353 -2.528888
v -1.850707 -1.928888 -2.305353
v -0.629293 -1.928888 -2.305354
v -1.850707 -2.010707 -2.000000
v -0.629293 -2.010707 -2.000000
v -1.850707 -1.928888 -1.694646
v -0.629293 -1.928888 -1.694646
v -1.850707 -1.705354 -1.471112
v -0.629293 -1.705353 -1.471112
v -1.850707 -1.400000 -1.389293
v -0.629293 -1.400000 -1.389293
v -1.850707 -1.094646 -1.471112
v -0.629293 -1.094646 -1.471112
v -1.850707 -0.871112 -1.694646
v -0.629293 -0.871112 -1.694647
v -1.850707 -0.789293 -2.000000
v -0.629293 -0.789293 -2.000000
v -1.850707 -0.871112 -2.305353
v -0.629293 -0.871112 -2.305354
v -1.850707 -1.094646 -2.528888
v -0.629293 -1.094646 -2.528888
vt 1.000000 0.500000
vt 1.000000 1.000000
vt 0.916667 1.000000
vt 0.916667 0.500000
vt 0.833333 1.000000
vt 0.833333 0.500000
vt 0.750000 1.000000
vt 0.750000 0.500000
vt 0.666667 1.000000
vt 0.666667 0.500000
vt 0.583333 1.000000
vt 0.583333 0.500000
vt 0.500000 1.000000
vt 0.500000 0.500000
vt 0.416667 1.000000
vt 0.416667 0.500000
vt 0.333333 1.000000
vt 0.333333 0.500000
vt 0.250000 1.000000
vt 0.250000 0.500000
vt 0.166667 1.000000
vt 0.166667 0.500000
vt 0.370000 0.457846
vt 0.250000 0.490000
vt 0.130000 0.457846
vt 0.042154 0.370000
vt 0.010000 0.250000
vt 0.042154 0.130000
vt 0.130000 0.042154
vt 0.250000 0.010000
vt 0.370000 0.042154
vt 0.457846 0.130000
vt 0.490000 0.250000
vt 0.457846 0.370000
vt 0.083333 1.000000
vt 0.083333 0.500000
vt 0.000000 1.000000
vt 0.000000 0.500000
vt 0.750000 0.490000
vt 0.870000 0.457846
vt 0.957846 0.370000
vt 0.990000 0.250000
vt 0.957846 0.130000
vt 0.870000 0.042154
vt 0.750000 0.010000
vt 0.630000 0.042154
vt 0.542154 0.130000
vt 0.510000 0.250000
vt 0.542154 0.370000
vt 0.630000 0.457846
vn -0.0000 -0.2588 -0.9659
vn -0.0000 -0.7071 -0.7071
vn 0.0000 -0.9659 -0.2588
vn 0.0000 -0.9659 0.2588
vn 0.0000 -0.7071 0.7071
vn 0.0000 -0.2588 0.9659
vn 0.0000 0.2588 0.9659
vn -0.0000 0.7071 0.7071
vn -0.0000 0.9659 0.2588
vn -0.0000 0.9659 -0.2588
vn 1.0000 0.0000 -0.0000
vn -0.0000 0.7071 -0.7071
vn -0.0000 0.2588 -0.9659
vn -1.0000 0.0000 0.0000
usemtl None
s off
f 89/176/54 90/177/54 92/178/54 91/179/54
f 91/179/55 92/178/55 94/180/55 93/181/55
f 93/181/56 94/180/56 96/182/56 95/183/56
f 95/183/57 96/182/57 98/184/57 97/185/57
f 97/185/58 98/184/58 100/186/58 99/187/58
f 99/187/59 100/186/59 102/188/59 101/189/59
f 101/189/60 102/188/60 104/190/60 103/191/60
f 103/191/61 104/190/61 106/192/61 105/193/61
f 105/193/62 106/192/62 108/194/62 107/195/62
f 107/195/63 108/194/63 110/196/63 109/197/63
f 92/198/64 90/199/64 112/200/64 110/201/64 108/202/64 106/203/64 104/204/64 102/205/64 100/206/64 98/207/64 96/208/64 94/209/64
f 109/197/65 110/196/65 112/210/65 111/211/65
f 111/211/66 112/210/66 90/212/66 89/213/66
f 89/214/67 91/215/67 93/216/67 95/217/67 97/218/67 99/219/67 101/220/67 103/221/67 105/222/67 107/223/67 109/224/67 111/225/67
